<svg version="1.1" xmlns="http://www.w3.org/2000/svg" xmlns:xlink="http://www.w3.org/1999/xlink" width="1200" height="800"><defs/><g transform="scale(2,2)"><g id="background-507f46c2"><rect fill="white" stroke="none" x="0" y="0" width="600" height="400" class="dcg-svg-background"/></g><g id="graphpaper-507f46c2"><g id="grid-507f46c2"><g stroke="rgb(0,0,0)" stroke-opacity="0.2500000000000001" stroke-miterlimit="10" stroke-dasharray=""><path fill="none" stroke="" class="dcg-svg-minor-gridline" d=""/><g transform="scale(1,1.0000000000000004)"><path fill="none" stroke="" d=" M 317.22116441233504 214.49999999999991 L 317.22116441233504 214.49999999999991 A 16.721164412335042 16.721164412335042 0 1 1 317.22115605175355 214.48327883837442"/><g transform="scale(1,0.9999999999999997)" stroke=""><path fill="none" stroke="" class="dcg-svg-minor-gridline" d=""/><g transform="scale(1,1.0000000000000004)"><path fill="none" stroke="" d=" M 334.03836167693447 214.49999999999991 L 334.03836167693447 214.49999999999991 A 33.53836167693447 33.53836167693447 0 1 1 334.038344907755 214.46646164391268"/><g transform="scale(1,0.9999999999999997)" stroke=""><path fill="none" stroke="" class="dcg-svg-minor-gridline" d=""/><g transform="scale(1,1.0000000000000004)"><path fill="none" stroke="" d=" M 350.8555589415339 214.49999999999991 L 350.8555589415339 214.49999999999991 A 50.3555589415339 50.3555589415339 0 1 1 350.8555337637565 214.44964444945094"/><g transform="scale(1,0.9999999999999997)" stroke=""><path fill="none" stroke="" class="dcg-svg-minor-gridline" d=""/><g transform="scale(1,1.0000000000000004)"><path fill="none" stroke="" d=" M 367.67275620613333 214.49999999999991 L 367.67275620613333 214.49999999999991 A 67.17275620613333 67.17275620613333 0 1 1 367.672722619758 214.4328272549892"/><g transform="scale(1,0.9999999999999997)" stroke=""><path fill="none" stroke="" class="dcg-svg-minor-gridline" d=""/><g transform="scale(1,1.0000000000000004)"><path fill="none" stroke="" d=" M 384.48995347073276 214.49999999999991 L 384.48995347073276 214.49999999999991 A 83.98995347073276 83.98995347073276 0 1 1 384.4899114757595 214.41601006052747"/><g transform="scale(1,0.9999999999999997)" stroke=""><path fill="none" stroke="" class="dcg-svg-minor-gridline" d=""/><g transform="scale(1,1.0000000000000004)"><path fill="none" stroke="" d=" M 401.3071507353322 214.49999999999991 L 401.3071507353322 214.49999999999991 A 100.80715073533219 100.80715073533219 0 1 1 401.30710033176103 214.3991928660657"/><g transform="scale(1,0.9999999999999997)" stroke=""><path fill="none" stroke="" class="dcg-svg-minor-gridline" d=""/><g transform="scale(1,1.0000000000000004)"><path fill="none" stroke="" d=" M 418.1243479999316 214.49999999999991 L 418.1243479999316 214.49999999999991 A 117.62434799993162 117.62434799993162 0 1 1 418.12428918776254 214.38237567160397"/><g transform="scale(1,0.9999999999999997)" stroke=""><path fill="none" stroke="" class="dcg-svg-minor-gridline" d=""/><g transform="scale(1,1.0000000000000004)"><path fill="none" stroke="" d=" M 434.941545264531 214.49999999999991 L 434.941545264531 214.49999999999991 A 134.441545264531 134.441545264531 0 1 1 434.94147804376394 214.36555847714223"/><g transform="scale(1,0.9999999999999997)" stroke=""><path fill="none" stroke="" class="dcg-svg-minor-gridline" d=""/><g transform="scale(1,1.0000000000000004)"><path fill="none" stroke="" d=" M 451.7587425291304 214.49999999999991 L 451.7587425291304 214.49999999999991 A 151.25874252913042 151.25874252913042 0 1 1 451.75866689976544 214.3487412826805"/><g transform="scale(1,0.9999999999999997)" stroke=""><path fill="none" stroke="" class="dcg-svg-minor-gridline" d=""/><g transform="scale(1,1.0000000000000004)"><path fill="none" stroke="" d=" M 468.57593979372984 214.49999999999991 L 468.57593979372984 214.49999999999991 A 168.07593979372984 168.07593979372984 0 1 1 468.57585575576695 214.33192408821876"/><g transform="scale(1,0.9999999999999997)" stroke=""><path fill="none" stroke="" class="dcg-svg-minor-gridline" d=""/><g transform="scale(1,1.0000000000000004)"><path fill="none" stroke="" d=" M 485.3931370583293 214.49999999999991 L 485.3931370583293 214.49999999999991 A 184.89313705832927 184.89313705832927 0 1 1 485.39304461176846 214.315106893757"/><g transform="scale(1,0.9999999999999997)" stroke=""><path fill="none" stroke="" class="dcg-svg-minor-gridline" d=""/><g transform="scale(1,1.0000000000000004)"><path fill="none" stroke="" d=" M 502.2103343229287 214.49999999999991 L 502.2103343229287 214.49999999999991 A 201.7103343229287 201.7103343229287 0 1 1 502.21023346776997 214.29828969929525"/><g transform="scale(1,0.9999999999999997)" stroke=""><path fill="none" stroke="" class="dcg-svg-minor-gridline" d=""/><g transform="scale(1,1.0000000000000004)"><path fill="none" stroke="" d=" M 519.0275315875281 214.49999999999991 L 519.0275315875281 214.49999999999991 A 218.52753158752807 218.52753158752807 0 1 1 519.0274223237714 214.28147250483352"/><g transform="scale(1,0.9999999999999997)" stroke=""><path fill="none" stroke="" class="dcg-svg-minor-gridline" d=""/><g transform="scale(1,1.0000000000000004)"><path fill="none" stroke="" d=" M 535.8447288521276 214.49999999999991 L 535.8447288521276 214.49999999999991 A 235.34472885212756 235.34472885212756 0 1 1 535.844611179773 214.26465531037178"/><g transform="scale(1,0.9999999999999997)" stroke=""><path fill="none" stroke="" class="dcg-svg-minor-gridline" d=""/><g transform="scale(1,1.0000000000000004)"><path fill="none" stroke="" d=" M 552.6619261167269 214.49999999999991 L 552.6619261167269 214.49999999999991 A 252.16192611672693 252.16192611672693 0 1 1 552.6618000357744 214.24783811591"/><g transform="scale(1,0.9999999999999997)" stroke=""><path fill="none" stroke="" class="dcg-svg-minor-gridline" d=""/><g transform="scale(1,1.0000000000000004)"><path fill="none" stroke="" d=" M 569.4791233813264 214.49999999999991 L 569.4791233813264 214.49999999999991 A 268.9791233813264 268.9791233813264 0 1 1 569.478988891776 214.23102092144828"/><g transform="scale(1,0.9999999999999997)" stroke=""><path fill="none" stroke="" class="dcg-svg-minor-gridline" d=""/><g transform="scale(1,1.0000000000000004)"><path fill="none" stroke="" d=" M 586.2963206459258 214.49999999999991 L 586.2963206459258 214.49999999999991 A 285.7963206459258 285.7963206459258 0 1 1 586.2961777477774 214.21420372698654"/><g transform="scale(1,0.9999999999999997)" stroke=""><path fill="none" stroke="" class="dcg-svg-minor-gridline" d=""/><g transform="scale(1,1.0000000000000004)"><path fill="none" stroke="" d=" M 603.1135179105252 214.49999999999991 L 603.1135179105252 214.49999999999991 A 302.61351791052516 302.61351791052516 0 1 1 603.1133666037788 214.1973865325248"/><g transform="scale(1,0.9999999999999997)" stroke=""><path fill="none" stroke="" class="dcg-svg-minor-gridline" d=""/><g transform="scale(1,1.0000000000000004)"><path fill="none" stroke="" d=" M 619.9307151751246 214.49999999999991 L 619.9307151751246 214.49999999999991 A 319.43071517512465 319.43071517512465 0 1 1 619.9305554597804 214.18056933806307"/><g transform="scale(1,0.9999999999999997)" stroke=""><path fill="none" stroke="" class="dcg-svg-minor-gridline" d=""/><g transform="scale(1,1.0000000000000004)"><path fill="none" stroke="" d=" M 636.7479124397241 214.49999999999991 L 636.7479124397241 214.49999999999991 A 336.24791243972413 336.24791243972413 0 1 1 636.7477443157819 214.1637521436013"/><g transform="scale(1,0.9999999999999997)" stroke=""><path fill="none" stroke="" class="dcg-svg-minor-gridline" d=""/><g transform="scale(1,1.0000000000000004)"><path fill="none" stroke="" d=" M 653.5651097043235 214.49999999999991 L 653.5651097043235 214.49999999999991 A 353.0651097043235 353.0651097043235 0 1 1 653.5649331717834 214.14693494913956"/><g transform="scale(1,0.9999999999999997)" stroke=""><path fill="none" stroke="" class="dcg-svg-minor-gridline" paint-order="fill stroke markers" d=" M 300.5 214.5 L 657.5 119.5"/><path fill="none" stroke="" class="dcg-svg-minor-gridline" paint-order="fill stroke markers" d=" M 300.5 214.5 L 620.5 30.5"/><path fill="none" stroke="" class="dcg-svg-minor-gridline" paint-order="fill stroke markers" d=" M 300.5 214.5 L 561.5 -46.5"/><path fill="none" stroke="" class="dcg-svg-minor-gridline" paint-order="fill stroke markers" d=" M 300.5 214.5 L 485.5 -105.5"/><path fill="none" stroke="" class="dcg-svg-minor-gridline" paint-order="fill stroke markers" d=" M 300.5 214.5 L 395.5 -141.5"/><path fill="none" stroke="" class="dcg-svg-minor-gridline" paint-order="fill stroke markers" d=" M 300.5 214.5 L 204.5 -141.5"/><path fill="none" stroke="" class="dcg-svg-minor-gridline" paint-order="fill stroke markers" d=" M 300.5 214.5 L 115.5 -105.5"/><path fill="none" stroke="" class="dcg-svg-minor-gridline" paint-order="fill stroke markers" d=" M 300.5 214.5 L 39.5 -46.5"/><path fill="none" stroke="" class="dcg-svg-minor-gridline" paint-order="fill stroke markers" d=" M 300.5 214.5 L -19.5 30.5"/><path fill="none" stroke="" class="dcg-svg-minor-gridline" paint-order="fill stroke markers" d=" M 300.5 214.5 L -56.5 119.5"/><path fill="none" stroke="" class="dcg-svg-minor-gridline" paint-order="fill stroke markers" d=" M 300.5 214.5 L -56.5 310.5"/><path fill="none" stroke="" class="dcg-svg-minor-gridline" paint-order="fill stroke markers" d=" M 300.5 214.5 L -19.5 399.5"/><path fill="none" stroke="" class="dcg-svg-minor-gridline" paint-order="fill stroke markers" d=" M 300.5 214.5 L 39.5 475.5"/><path fill="none" stroke="" class="dcg-svg-minor-gridline" paint-order="fill stroke markers" d=" M 300.5 214.5 L 115.5 534.5"/><path fill="none" stroke="" class="dcg-svg-minor-gridline" paint-order="fill stroke markers" d=" M 300.5 214.5 L 204.5 571.5"/><path fill="none" stroke="" class="dcg-svg-minor-gridline" paint-order="fill stroke markers" d=" M 300.5 214.5 L 395.5 571.5"/><path fill="none" stroke="" class="dcg-svg-minor-gridline" paint-order="fill stroke markers" d=" M 300.5 214.5 L 485.5 534.5"/><path fill="none" stroke="" class="dcg-svg-minor-gridline" paint-order="fill stroke markers" d=" M 300.5 214.5 L 561.5 475.5"/><path fill="none" stroke="" class="dcg-svg-minor-gridline" paint-order="fill stroke markers" d=" M 300.5 214.5 L 620.5 399.5"/><path fill="none" stroke="" class="dcg-svg-minor-gridline" paint-order="fill stroke markers" d=" M 300.5 214.5 L 657.5 310.5"/><path fill="none" stroke="" class="dcg-svg-major-gridline" d=""/><g transform="scale(1,1.0000000000000004)"><path fill="none" stroke="" d=" M 384.48995347073276 214.49999999999991 L 384.48995347073276 214.49999999999991 A 83.98995347073276 83.98995347073276 0 1 1 384.4899114757595 214.41601006052747"/><g transform="scale(1,0.9999999999999997)" stroke=""><path fill="none" stroke="" class="dcg-svg-major-gridline" d=""/><g transform="scale(1,1.0000000000000004)"><path fill="none" stroke="" d=" M 468.57593979372984 214.49999999999991 L 468.57593979372984 214.49999999999991 A 168.07593979372984 168.07593979372984 0 1 1 468.57585575576695 214.33192408821876"/><g transform="scale(1,0.9999999999999997)" stroke=""><path fill="none" stroke="" class="dcg-svg-major-gridline" d=""/><g transform="scale(1,1.0000000000000004)"><path fill="none" stroke="" d=" M 552.6619261167269 214.49999999999991 L 552.6619261167269 214.49999999999991 A 252.16192611672693 252.16192611672693 0 1 1 552.6618000357744 214.24783811591"/><g transform="scale(1,0.9999999999999997)" stroke=""><path fill="none" stroke="" class="dcg-svg-major-gridline" d=""/><g transform="scale(1,1.0000000000000004)"><path fill="none" stroke="" d=" M 636.7479124397241 214.49999999999991 L 636.7479124397241 214.49999999999991 A 336.24791243972413 336.24791243972413 0 1 1 636.7477443157819 214.1637521436013"/><g transform="scale(1,0.9999999999999997)" stroke=""/></g></g></g></g></g></g></g></g></g></g></g></g></g></g></g></g></g></g></g></g></g></g></g></g></g></g></g></g></g></g></g></g></g></g></g></g></g></g></g></g></g></g></g></g></g></g></g></g></g></g></g><g id="axis-507f46c2"><g id="yaxis-507f46c2"><title>Y axis</title><g><path fill="none" stroke="rgb(0,0,0)" class="dcg-svg-axis-line" paint-order="fill stroke markers" d=" M 300 0 L 300 400" stroke-opacity="0.9" stroke-miterlimit="10" stroke-width="1.5" stroke-dasharray=""/></g></g><g id="xaxis-507f46c2"><title>X axis</title><g><path fill="none" stroke="rgb(0,0,0)" class="dcg-svg-axis-line" paint-order="fill stroke markers" d=" M 0 215 L 600 215" stroke-opacity="0.9" stroke-miterlimit="10" stroke-width="1.5" stroke-dasharray=""/></g></g><g><g class="dcg-svg-axis-value"><text fill="none" stroke="#ffffff" font-family="Arial" font-size="14px" font-style="normal" font-weight="normal" text-decoration="normal" x="384.48995347073276" y="228.60203386702926" text-anchor="middle" stroke-miterlimit="2" stroke-width="3" stroke-dasharray="">1</text><text fill="#000000" stroke="none" font-family="Arial" font-size="14px" font-style="normal" font-weight="normal" text-decoration="normal" x="384.48995347073276" y="228.60203386702926" text-anchor="middle">1</text></g><g class="dcg-svg-axis-value"><text fill="none" stroke="#ffffff" font-family="Arial" font-size="14px" font-style="normal" font-weight="normal" text-decoration="normal" x="216.3179808247385" y="228.60203386702926" text-anchor="middle" stroke-miterlimit="2" stroke-width="3" stroke-dasharray="">1</text><text fill="#000000" stroke="none" font-family="Arial" font-size="14px" font-style="normal" font-weight="normal" text-decoration="normal" x="216.3179808247385" y="228.60203386702926" text-anchor="middle">1</text></g><g class="dcg-svg-axis-value"><text fill="none" stroke="#ffffff" font-family="Arial" font-size="14px" font-style="normal" font-weight="normal" text-decoration="normal" x="291.5109007414856" y="134.51604754403212" text-anchor="middle" stroke-miterlimit="2" stroke-width="3" stroke-dasharray="">1</text><text fill="#000000" stroke="none" font-family="Arial" font-size="14px" font-style="normal" font-weight="normal" text-decoration="normal" x="291.5109007414856" y="134.51604754403212" text-anchor="middle">1</text></g><g class="dcg-svg-axis-value"><text fill="none" stroke="#ffffff" font-family="Arial" font-size="14px" font-style="normal" font-weight="normal" text-decoration="normal" x="291.5109007414856" y="302.6880201900264" text-anchor="middle" stroke-miterlimit="2" stroke-width="3" stroke-dasharray="">1</text><text fill="#000000" stroke="none" font-family="Arial" font-size="14px" font-style="normal" font-weight="normal" text-decoration="normal" x="291.5109007414856" y="302.6880201900264" text-anchor="middle">1</text></g><g class="dcg-svg-axis-value"><text fill="none" stroke="#ffffff" font-family="Arial" font-size="14px" font-style="normal" font-weight="normal" text-decoration="normal" x="468.57593979372984" y="228.60203386702926" text-anchor="middle" stroke-miterlimit="2" stroke-width="3" stroke-dasharray="">2</text><text fill="#000000" stroke="none" font-family="Arial" font-size="14px" font-style="normal" font-weight="normal" text-decoration="normal" x="468.57593979372984" y="228.60203386702926" text-anchor="middle">2</text></g><g class="dcg-svg-axis-value"><text fill="none" stroke="#ffffff" font-family="Arial" font-size="14px" font-style="normal" font-weight="normal" text-decoration="normal" x="132.23199450174138" y="228.60203386702926" text-anchor="middle" stroke-miterlimit="2" stroke-width="3" stroke-dasharray="">2</text><text fill="#000000" stroke="none" font-family="Arial" font-size="14px" font-style="normal" font-weight="normal" text-decoration="normal" x="132.23199450174138" y="228.60203386702926" text-anchor="middle">2</text></g><g class="dcg-svg-axis-value"><text fill="none" stroke="#ffffff" font-family="Arial" font-size="14px" font-style="normal" font-weight="normal" text-decoration="normal" x="291.5109007414856" y="50.43006122103498" text-anchor="middle" stroke-miterlimit="2" stroke-width="3" stroke-dasharray="">2</text><text fill="#000000" stroke="none" font-family="Arial" font-size="14px" font-style="normal" font-weight="normal" text-decoration="normal" x="291.5109007414856" y="50.43006122103498" text-anchor="middle">2</text></g><g class="dcg-svg-axis-value"><text fill="none" stroke="#ffffff" font-family="Arial" font-size="14px" font-style="normal" font-weight="normal" text-decoration="normal" x="291.5109007414856" y="386.77400651302355" text-anchor="middle" stroke-miterlimit="2" stroke-width="3" stroke-dasharray="">2</text><text fill="#000000" stroke="none" font-family="Arial" font-size="14px" font-style="normal" font-weight="normal" text-decoration="normal" x="291.5109007414856" y="386.77400651302355" text-anchor="middle">2</text></g><g class="dcg-svg-axis-value"><text fill="none" stroke="#ffffff" font-family="Arial" font-size="14px" font-style="normal" font-weight="normal" text-decoration="normal" x="552.6619261167269" y="228.60203386702926" text-anchor="middle" stroke-miterlimit="2" stroke-width="3" stroke-dasharray="">3</text><text fill="#000000" stroke="none" font-family="Arial" font-size="14px" font-style="normal" font-weight="normal" text-decoration="normal" x="552.6619261167269" y="228.60203386702926" text-anchor="middle">3</text></g><g class="dcg-svg-axis-value"><text fill="none" stroke="#ffffff" font-family="Arial" font-size="14px" font-style="normal" font-weight="normal" text-decoration="normal" x="48.14600817874427" y="228.60203386702926" text-anchor="middle" stroke-miterlimit="2" stroke-width="3" stroke-dasharray="">3</text><text fill="#000000" stroke="none" font-family="Arial" font-size="14px" font-style="normal" font-weight="normal" text-decoration="normal" x="48.14600817874427" y="228.60203386702926" text-anchor="middle">3</text></g><g class="dcg-svg-polar-axis-value"><text fill="none" stroke="#ffffff" font-family="Arial" font-size="14px" font-style="normal" font-weight="normal" text-decoration="normal" x="460.56775062011104" y="204.60203386702926" text-anchor="middle" stroke-miterlimit="2" stroke-width="3" stroke-dasharray="">0</text><text fill="rgb(150,150,150)" stroke="none" font-family="Arial" font-size="14px" font-style="normal" font-weight="normal" text-decoration="normal" x="460.56775062011104" y="204.60203386702926" text-anchor="middle" fill-opacity="1">0</text></g><g class="dcg-svg-polar-axis-value"><text fill="none" stroke="#ffffff" font-family="Arial" font-size="14px" font-style="normal" font-weight="normal" text-decoration="normal" x="439.109872401043" y="138.52014213084152" text-anchor="middle" stroke-miterlimit="2" stroke-width="3" stroke-dasharray="">π/6</text><text fill="rgb(150,150,150)" stroke="none" font-family="Arial" font-size="14px" font-style="normal" font-weight="normal" text-decoration="normal" x="439.109872401043" y="138.52014213084152" text-anchor="middle" fill-opacity="1">π/6</text></g><g class="dcg-svg-polar-axis-value"><text fill="none" stroke="#ffffff" font-family="Arial" font-size="14px" font-style="normal" font-weight="normal" text-decoration="normal" x="380.48585888392336" y="79.89612861372187" text-anchor="middle" stroke-miterlimit="2" stroke-width="3" stroke-dasharray="">π/3</text><text fill="rgb(150,150,150)" stroke="none" font-family="Arial" font-size="14px" font-style="normal" font-weight="normal" text-decoration="normal" x="380.48585888392336" y="79.89612861372187" text-anchor="middle" fill-opacity="1">π/3</text></g><g class="dcg-svg-polar-axis-value"><text fill="none" stroke="#ffffff" font-family="Arial" font-size="14px" font-style="normal" font-weight="normal" text-decoration="normal" x="311.0235960539856" y="58.43825039465376" text-anchor="middle" stroke-miterlimit="2" stroke-width="3" stroke-dasharray="">π/2</text><text fill="rgb(150,150,150)" stroke="none" font-family="Arial" font-size="14px" font-style="normal" font-weight="normal" text-decoration="normal" x="311.0235960539856" y="58.43825039465376" text-anchor="middle" fill-opacity="1">π/2</text></g><g class="dcg-svg-polar-axis-value"><text fill="none" stroke="#ffffff" font-family="Arial" font-size="14px" font-style="normal" font-weight="normal" text-decoration="normal" x="220.32207541154793" y="79.89612861372187" text-anchor="middle" stroke-miterlimit="2" stroke-width="3" stroke-dasharray="">2π/3</text><text fill="rgb(150,150,150)" stroke="none" font-family="Arial" font-size="14px" font-style="normal" font-weight="normal" text-decoration="normal" x="220.32207541154793" y="79.89612861372187" text-anchor="middle" fill-opacity="1">2π/3</text></g><g class="dcg-svg-polar-axis-value"><text fill="none" stroke="#ffffff" font-family="Arial" font-size="14px" font-style="normal" font-weight="normal" text-decoration="normal" x="161.69806189442824" y="138.52014213084152" text-anchor="middle" stroke-miterlimit="2" stroke-width="3" stroke-dasharray="">5π/6</text><text fill="rgb(150,150,150)" stroke="none" font-family="Arial" font-size="14px" font-style="normal" font-weight="normal" text-decoration="normal" x="161.69806189442824" y="138.52014213084152" text-anchor="middle" fill-opacity="1">5π/6</text></g><g class="dcg-svg-polar-axis-value"><text fill="none" stroke="#ffffff" font-family="Arial" font-size="14px" font-style="normal" font-weight="normal" text-decoration="normal" x="140.24018367536016" y="204.60203386702923" text-anchor="middle" stroke-miterlimit="2" stroke-width="3" stroke-dasharray="">π</text><text fill="rgb(150,150,150)" stroke="none" font-family="Arial" font-size="14px" font-style="normal" font-weight="normal" text-decoration="normal" x="140.24018367536016" y="204.60203386702923" text-anchor="middle" fill-opacity="1">π</text></g><g class="dcg-svg-polar-axis-value"><text fill="none" stroke="#ffffff" font-family="Arial" font-size="14px" font-style="normal" font-weight="normal" text-decoration="normal" x="161.69806189442826" y="298.68392560321706" text-anchor="middle" stroke-miterlimit="2" stroke-width="3" stroke-dasharray="">7π/6</text><text fill="rgb(150,150,150)" stroke="none" font-family="Arial" font-size="14px" font-style="normal" font-weight="normal" text-decoration="normal" x="161.69806189442826" y="298.68392560321706" text-anchor="middle" fill-opacity="1">7π/6</text></g><g class="dcg-svg-polar-axis-value"><text fill="none" stroke="#ffffff" font-family="Arial" font-size="14px" font-style="normal" font-weight="normal" text-decoration="normal" x="220.32207541154781" y="357.30793912033664" text-anchor="middle" stroke-miterlimit="2" stroke-width="3" stroke-dasharray="">4π/3</text><text fill="rgb(150,150,150)" stroke="none" font-family="Arial" font-size="14px" font-style="normal" font-weight="normal" text-decoration="normal" x="220.32207541154781" y="357.30793912033664" text-anchor="middle" fill-opacity="1">4π/3</text></g><g class="dcg-svg-polar-axis-value"><text fill="none" stroke="#ffffff" font-family="Arial" font-size="14px" font-style="normal" font-weight="normal" text-decoration="normal" x="313.80435777273556" y="378.76581733940475" text-anchor="middle" stroke-miterlimit="2" stroke-width="3" stroke-dasharray="">3π/2</text><text fill="rgb(150,150,150)" stroke="none" font-family="Arial" font-size="14px" font-style="normal" font-weight="normal" text-decoration="normal" x="313.80435777273556" y="378.76581733940475" text-anchor="middle" fill-opacity="1">3π/2</text></g><g class="dcg-svg-polar-axis-value"><text fill="none" stroke="#ffffff" font-family="Arial" font-size="14px" font-style="normal" font-weight="normal" text-decoration="normal" x="380.48585888392336" y="357.30793912033664" text-anchor="middle" stroke-miterlimit="2" stroke-width="3" stroke-dasharray="">5π/3</text><text fill="rgb(150,150,150)" stroke="none" font-family="Arial" font-size="14px" font-style="normal" font-weight="normal" text-decoration="normal" x="380.48585888392336" y="357.30793912033664" text-anchor="middle" fill-opacity="1">5π/3</text></g><g class="dcg-svg-polar-axis-value"><text fill="none" stroke="#ffffff" font-family="Arial" font-size="14px" font-style="normal" font-weight="normal" text-decoration="normal" x="439.10987240104294" y="298.68392560321706" text-anchor="middle" stroke-miterlimit="2" stroke-width="3" stroke-dasharray="">11π/6</text><text fill="rgb(150,150,150)" stroke="none" font-family="Arial" font-size="14px" font-style="normal" font-weight="normal" text-decoration="normal" x="439.10987240104294" y="298.68392560321706" text-anchor="middle" fill-opacity="1">11π/6</text></g></g></g></g><g id="expressions-507f46c2"><g id="sketch-507f46c2"><title>表达式1</title><g><path fill="none" stroke="#c74440" class="dcg-svg-curve" paint-order="fill stroke markers" d=" M 468.57593979372984 214.79403386702927 L 468.57593979372984 214.79403386702927 L 468.4514861921956 209.51292782561296 L 468.07849374862616 204.244846819021 L 467.45806621355837 199.00277219272812 L 466.59203873448143 193.79959807831833 L 465.48297121869643 188.6480881979183 L 463.8359388213958 182.55218602777808 L 461.8506772776618 176.57013919873435 L 459.5356036832288 170.72273904267507 L 456.90051372151527 165.03012910905144 L 453.95653077595676 159.5117092962239 L 450.71604819539044 154.18604401526306 L 447.19266503277476 149.0707748818939 L 443.40111561363756 144.18253840685134 L 439.35719332473593 139.53688912686317 L 435.07766904530183 135.14822858794477 L 430.5802046727492 131.02974055985743 L 425.8832622216719 127.19333282562933 L 421.00600899921034 123.6495858531688 L 415.96821938127454 120.4077086174155 L 410.79017373256227 117.47550180140216 L 405.49255502869545 114.85932856325952 L 400.09634375103684 112.56409301382487 L 394.62271163376636 110.59322650635315 L 389.09291484854697 108.94868179611855 L 383.528187214561 107.63093508368563 L 377.94963402083556 106.63899591156762 L 372.3781270436071 105.9704248401288 L 366.83420133402416 105.62135878517174 L 361.3379543407978 105.58654385692817 L 355.9089479185422 105.8593754983829 L 350.5661137555846 106.43194568024187 L 345.3276627350578 107.29509687063624 L 340.2109987202386 108.43848246005733 L 335.2326372294893 109.85063328625287 L 330.4081294379432 111.51902987008766 L 325.75199191241154 113.43017994186889 L 321.2776424530518 115.56970080853816 L 316.99734238031203 117.92240608560158 L 312.26359365286555 120.91542343604985 L 307.8243569527611 124.15064304966856 L 303.69263166914516 127.60082856816923 L 299.8789623281812 131.23802125829593 L 296.3913984549909 135.03375868474978 L 293.23547379763977 138.95929545543873 L 290.4142049936177 142.9858243308171 L 287.92810960894093 147.08469598979292 L 285.77524333037553 151.22763575859233 L 283.95125594350793 155.38695563596738 L 282.4494655846066 159.53575998799982 L 281.26095061355204 163.64814333817515 L 280.3746583196413 167.69937874296426 L 279.777529542854 171.66609531935012 L 279.42994744589276 176.06804029481293 L 279.4154934099008 180.3011880730627 L 279.70656703567425 184.33873444848373 L 280.27331875466723 188.157224353092 L 281.0840192267172 191.7367449634521 L 282.24624033948936 195.45801875008107 L 283.6262086410453 198.8391106367049 L 285.173982980348 201.86892553716538 L 287.0294726853362 204.81772866000782 L 289.15689538170443 207.55689876335398 L 291.4808348601931 209.96126044697328 L 293.8810162195557 211.9225077737679 L 296.1909980895588 213.366383230969 L 298.3165958537297 214.31366091727983 L 299.9815619699432 214.7514254297477 L 300.0324467349369 214.82915288588995 L 298.64149813379953 215.16480185103674 L 296.92162153667016 215.85337927463067 L 294.9138104510157 216.96774067594905 L 292.61122370211496 218.6420635259143 L 290.324984424737 220.75472763319442 L 288.184031747926 223.21141762646914 L 286.27424767323333 225.8970625404488 L 284.46858357480284 229.02190510967918 L 282.98918917748364 232.20881183728125 L 281.6998753157367 235.74283728554752 L 280.7534996160389 239.1645272734348 L 280.03045824281713 242.83576318031754 L 279.5634602213402 246.73892682551624 L 279.3835744133474 250.85275686240493 L 279.51984921444017 255.15251761955483 L 279.9194681281417 259.04539150083644 L 280.5977708663555 263.03855535344763 L 281.5691651835415 267.1097088949059 L 282.84615057302307 271.2350763680437 L 284.43918290710326 275.38957549014106 L 286.3565542622018 279.5469982212928 L 288.6042889343532 283.6802019796709 L 291.18605652625536 287.76130984719697 L 294.1031028559509 291.76191823620195 L 297.35419930015433 295.65331042651246 L 300.935611043288 299.4066743335284 L 304.8410845575358 302.99332283164057 L 309.06185449080164 306.38491493406025 L 313.58666998951827 309.55367611998685 L 318.40184033294037 312.47261610310176 L 322.7481123425904 314.7559932073725 L 327.2844784177291 316.82103999253746 L 331.9982857427955 318.6528280852698 L 336.8757435246659 320.23726216889105 L 341.90198288950614 321.561165314819 L 347.06112311607393 322.6123597877853 L 352.336343855061 323.37974285724204 L 357.709962949716 323.85335717478205 L 363.16351944078707 324.024455307315 L 367.75541457354063 323.9305131072195 L 372.37812704360704 323.61764289392977 L 377.0200009153424 323.0828695896617 L 381.66916914705564 322.32388901629895 L 386.31359405714534 321.339081345691 L 391.8635049383768 319.85796809899944 L 397.3678775126233 318.0501108205827 L 402.80545346026145 315.91672324088927 L 408.1550054642569 313.46049765131033 L 413.3954440863084 310.6856030066495 L 418.50592437437444 307.5976751453021 L 423.46595161461096 304.2037991629494 L 428.25548564485393 300.512484019465 L 432.8550431541727 296.53362950219554 L 437.2457974036505 292.2784857115781 L 441.40967481737573 287.75960527693803 L 445.329447909549 282.99078855105193 L 448.9888240335657 277.9870220714115 L 452.37252946177045 272.7644106138806 L 455.4663883302024 267.34010320037373 L 458.25739601089896 261.7322134561009 L 460.73378650504117 255.95973474362626 L 462.8850934832386 250.04245053030598 L 464.7022046343767 244.00084047241856 L 466.1774090214852 237.85598272335233 L 467.1410000076295 232.67195139993984 L 467.85992850152275 227.44389602249217 L 468.33206850794795 222.18466371836556 L 468.5560230899292 216.9072061556672 L 468.57593979372984 214.7940338670293" stroke-linecap="round" stroke-linejoin="round" stroke-miterlimit="10" stroke-width="2.5" stroke-dasharray=""/></g></g></g><g id="labels-507f46c2"/><g id="labels-507f46c2"/></g></svg>